HIERARCHY
ROOT Hips
{
	OFFSET 0.000000 71.427986 0.000000
	CHANNELS 6 Xposition Yposition Zposition Xrotation Yrotation Zrotation
	JOINT Pelvis
	{
		OFFSET 0.000000 0.000000 0.000000
		CHANNELS 3 Xrotation Yrotation Zrotation
		JOINT LeftUpLeg
		{
			OFFSET 6.797100 -2.508499 -1.318700
			CHANNELS 3 Xrotation Yrotation Zrotation
			JOINT LeftLeg
			{
				OFFSET 0.069008 -29.241863 0.690200
				CHANNELS 3 Xrotation Yrotation Zrotation
				JOINT LeftFoot
				{
					OFFSET -0.069008 -29.568123 -0.266800
					CHANNELS 3 Xrotation Yrotation Zrotation
					JOINT LeftToeBase
					{
						OFFSET 3.145500 -8.631000 16.059900
						CHANNELS 3 Xrotation Yrotation Zrotation
						End Site
						{
							OFFSET 0.000000 18.501587 0.000000
						}
					}
				}
			}
			JOINT Left_ShortSleeve
			{
				OFFSET 0.265923 -10.480953 1.153800
				CHANNELS 3 Xrotation Yrotation Zrotation
				End Site
				{
					OFFSET 1.725763 19.823879 0.000000
				}
			}
		}
		JOINT RightUpLeg
		{
			OFFSET -6.797100 -2.508499 -1.318700
			CHANNELS 3 Xrotation Yrotation Zrotation
			JOINT RightLeg
			{
				OFFSET -0.082453 -29.241932 0.688000
				CHANNELS 3 Xrotation Yrotation Zrotation
				JOINT RightFoot
				{
					OFFSET 0.082453 -29.568058 -0.264600
					CHANNELS 3 Xrotation Yrotation Zrotation
					JOINT RightToeBase
					{
						OFFSET -3.115300 -8.682800 16.113400
						CHANNELS 3 Xrotation Yrotation Zrotation
						End Site
						{
							OFFSET 0.000000 18.567114 0.000000
						}
					}
				}
			}
			JOINT Right_ShortSleeve
			{
				OFFSET -0.265923 -10.480953 1.153800
				CHANNELS 3 Xrotation Yrotation Zrotation
				End Site
				{
					OFFSET -1.725766 19.823910 0.000000
				}
			}
		}
	}
	JOINT Spine
	{
		OFFSET 0.000000 13.368103 0.470500
		CHANNELS 3 Xrotation Yrotation Zrotation
		JOINT Spine1
		{
			OFFSET 0.147000 13.837402 0.538800
			CHANNELS 3 Xrotation Yrotation Zrotation
			JOINT Spine2
			{
				OFFSET 0.168000 16.242897 -1.435500
				CHANNELS 3 Xrotation Yrotation Zrotation
				JOINT Neck
				{
					OFFSET 0.217200 18.631500 -1.679100
					CHANNELS 3 Xrotation Yrotation Zrotation
					JOINT Head
					{
						OFFSET 0.000000 6.599396 1.385900
						CHANNELS 3 Xrotation Yrotation Zrotation
						JOINT Hat
						{
							OFFSET -0.532200 27.220596 -10.096100
							CHANNELS 3 Xrotation Yrotation Zrotation
							End Site
							{
								OFFSET 0.000000 22.029861 0.000000
							}
						}
						JOINT HairD
						{
							OFFSET -10.777400 17.437393 -1.325900
							CHANNELS 3 Xrotation Yrotation Zrotation
							JOINT HairD1
							{
								OFFSET -3.290299 -11.051193 1.062200
								CHANNELS 3 Xrotation Yrotation Zrotation
								End Site
								{
									OFFSET 0.000000 11.579437 0.000000
								}
							}
						}
						JOINT HairB
						{
							OFFSET -10.777400 17.437393 1.467900
							CHANNELS 3 Xrotation Yrotation Zrotation
							JOINT HairB1
							{
								OFFSET -1.561200 -12.956299 3.590200
								CHANNELS 3 Xrotation Yrotation Zrotation
								End Site
								{
									OFFSET 0.000000 13.534866 0.000000
								}
							}
						}
						JOINT HairA
						{
							OFFSET 9.713100 17.437393 1.467900
							CHANNELS 3 Xrotation Yrotation Zrotation
							JOINT HairA1
							{
								OFFSET 1.561200 -12.956299 3.590200
								CHANNELS 3 Xrotation Yrotation Zrotation
								End Site
								{
									OFFSET 0.000000 13.534866 0.000000
								}
							}
						}
						JOINT HairC
						{
							OFFSET 9.713100 17.437393 -1.325900
							CHANNELS 3 Xrotation Yrotation Zrotation
							JOINT HairC1
							{
								OFFSET 3.290300 -11.051193 1.062200
								CHANNELS 3 Xrotation Yrotation Zrotation
								End Site
								{
									OFFSET 0.000000 11.579437 0.000000
								}
							}
						}
					}
				}
				JOINT LeftShoulder
				{
					OFFSET 5.101800 15.108002 -2.763700
					CHANNELS 3 Xrotation Yrotation Zrotation
					JOINT LeftArm
					{
						OFFSET 9.825497 2.506317 -1.597400
						CHANNELS 3 Xrotation Yrotation Zrotation
						JOINT LeftForeArm
						{
							OFFSET 21.966244 0.000000 0.000000
							CHANNELS 3 Xrotation Yrotation Zrotation
							JOINT LeftHand
							{
								OFFSET 33.879036 0.000000 0.000000
								CHANNELS 3 Xrotation Yrotation Zrotation
								JOINT LeftHandThumb1
								{
									OFFSET 6.715286 -2.359680 3.363841
									CHANNELS 3 Xrotation Yrotation Zrotation
									JOINT LeftHandThumb2
									{
										OFFSET 2.507072 -1.447464 1.447461
										CHANNELS 3 Xrotation Yrotation Zrotation
										JOINT LeftHandThumb3
										{
											OFFSET 2.898338 -1.673355 1.673357
											CHANNELS 3 Xrotation Yrotation Zrotation
											End Site
											{
												OFFSET -0.295959 3.727692 -0.131651
											}
										}
									}
								}
								JOINT LeftHandIndex1
								{
									OFFSET 14.190811 -0.254547 3.840278
									CHANNELS 3 Xrotation Yrotation Zrotation
									JOINT LeftHandIndex2
									{
										OFFSET 3.551727 0.000000 -0.000000
										CHANNELS 3 Xrotation Yrotation Zrotation
										JOINT LeftHandIndex3
										{
											OFFSET 2.894196 0.000000 0.000000
											CHANNELS 3 Xrotation Yrotation Zrotation
											End Site
											{
												OFFSET -1.000603 2.690872 0.366626
											}
										}
									}
								}
								JOINT LeftHandMiddle1
								{
									OFFSET 13.776489 0.000000 0.000000
									CHANNELS 3 Xrotation Yrotation Zrotation
									JOINT LeftHandMiddle2
									{
										OFFSET 3.438232 0.000000 0.000000
										CHANNELS 3 Xrotation Yrotation Zrotation
										JOINT LeftHandMiddle3
										{
											OFFSET 3.691551 0.000000 0.000000
											CHANNELS 3 Xrotation Yrotation Zrotation
											End Site
											{
												OFFSET -1.082298 3.499527 0.457670
											}
										}
									}
								}
								JOINT LeftHandRing1
								{
									OFFSET 13.966164 -0.268127 -3.067488
									CHANNELS 3 Xrotation Yrotation Zrotation
									JOINT LeftHandRing2
									{
										OFFSET 3.162567 0.000000 0.000000
										CHANNELS 3 Xrotation Yrotation Zrotation
										JOINT LeftHandRing3
										{
											OFFSET 3.324348 0.000000 0.000000
											CHANNELS 3 Xrotation Yrotation Zrotation
											End Site
											{
												OFFSET -0.861900 3.184998 0.405154
											}
										}
									}
								}
								JOINT LeftHandPinky1
								{
									OFFSET 13.131393 -0.168503 -5.746925
									CHANNELS 3 Xrotation Yrotation Zrotation
									JOINT LeftHandPinky2
									{
										OFFSET 2.849182 0.000000 0.000000
										CHANNELS 3 Xrotation Yrotation Zrotation
										JOINT LeftHandPinky3
										{
											OFFSET 2.805038 0.000000 0.000000
											CHANNELS 3 Xrotation Yrotation Zrotation
											End Site
											{
												OFFSET -0.882500 2.642609 0.325652
											}
										}
									}
								}
							}
							JOINT Left_Sleeve
							{
								OFFSET 6.592125 -0.646545 0.805568
								CHANNELS 3 Xrotation Yrotation Zrotation
								End Site
								{
									OFFSET -0.000179 20.275787 -0.000000
								}
							}
						}
					}
				}
				JOINT RightShoulder
				{
					OFFSET -5.731700 15.108002 -2.763700
					CHANNELS 3 Xrotation Yrotation Zrotation
					JOINT RightArm
					{
						OFFSET -9.825497 2.506317 -1.597400
						CHANNELS 3 Xrotation Yrotation Zrotation
						JOINT RightForeArm
						{
							OFFSET -21.966242 0.000000 0.000000
							CHANNELS 3 Xrotation Yrotation Zrotation
							JOINT RightHand
							{
								OFFSET -33.879032 0.000000 0.000000
								CHANNELS 3 Xrotation Yrotation Zrotation
								JOINT RightHandThumb1
								{
									OFFSET -6.715286 -2.359680 3.363841
									CHANNELS 3 Xrotation Yrotation Zrotation
									JOINT RightHandThumb2
									{
										OFFSET -2.507072 -1.447464 1.447461
										CHANNELS 3 Xrotation Yrotation Zrotation
										JOINT RightHandThumb3
										{
											OFFSET -2.898338 -1.673355 1.673357
											CHANNELS 3 Xrotation Yrotation Zrotation
											End Site
											{
												OFFSET 0.295959 3.727692 -0.131651
											}
										}
									}
								}
								JOINT RightHandIndex1
								{
									OFFSET -14.190811 -0.254547 3.840278
									CHANNELS 3 Xrotation Yrotation Zrotation
									JOINT RightHandIndex2
									{
										OFFSET -3.551727 0.000000 -0.000000
										CHANNELS 3 Xrotation Yrotation Zrotation
										JOINT RightHandIndex3
										{
											OFFSET -2.894196 0.000000 0.000000
											CHANNELS 3 Xrotation Yrotation Zrotation
											End Site
											{
												OFFSET 1.000603 2.690872 0.366626
											}
										}
									}
								}
								JOINT RightHandMiddle1
								{
									OFFSET -13.776489 0.000000 0.000000
									CHANNELS 3 Xrotation Yrotation Zrotation
									JOINT RightHandMiddle2
									{
										OFFSET -3.438232 0.000000 0.000000
										CHANNELS 3 Xrotation Yrotation Zrotation
										JOINT RightHandMiddle3
										{
											OFFSET -3.691551 0.000000 0.000000
											CHANNELS 3 Xrotation Yrotation Zrotation
											End Site
											{
												OFFSET 1.082298 3.499527 0.457670
											}
										}
									}
								}
								JOINT RightHandRing1
								{
									OFFSET -13.966164 -0.268127 -3.067488
									CHANNELS 3 Xrotation Yrotation Zrotation
									JOINT RightHandRing2
									{
										OFFSET -3.162567 0.000000 0.000000
										CHANNELS 3 Xrotation Yrotation Zrotation
										JOINT RightHandRing3
										{
											OFFSET -3.324348 0.000000 0.000000
											CHANNELS 3 Xrotation Yrotation Zrotation
											End Site
											{
												OFFSET 0.861900 3.184998 0.405154
											}
										}
									}
								}
								JOINT RightHandPinky1
								{
									OFFSET -13.131393 -0.168503 -5.746925
									CHANNELS 3 Xrotation Yrotation Zrotation
									JOINT RightHandPinky2
									{
										OFFSET -2.849182 0.000000 0.000000
										CHANNELS 3 Xrotation Yrotation Zrotation
										JOINT RightHandPinky3
										{
											OFFSET -2.805038 0.000000 0.000000
											CHANNELS 3 Xrotation Yrotation Zrotation
											End Site
											{
												OFFSET 0.882500 2.642609 0.325652
											}
										}
									}
								}
							}
							JOINT Right_Sleeve
							{
								OFFSET -6.592125 -0.646545 0.805568
								CHANNELS 3 Xrotation Yrotation Zrotation
								End Site
								{
									OFFSET 0.000179 20.275787 -0.000000
								}
							}
						}
					}
				}
				JOINT Bind_Right_JacketString
				{
					OFFSET -3.534800 11.969597 7.200700
					CHANNELS 3 Xrotation Yrotation Zrotation
					JOINT Bind_Right_JacketString1
					{
						OFFSET -0.319900 -6.102600 2.794100
						CHANNELS 3 Xrotation Yrotation Zrotation
						End Site
						{
							OFFSET 0.000000 6.719452 0.000000
						}
					}
				}
				JOINT Bind_Left_JacketString
				{
					OFFSET 2.904800 11.969597 7.200700
					CHANNELS 3 Xrotation Yrotation Zrotation
					JOINT Bind_Left_JacketString1
					{
						OFFSET 0.364800 -5.904503 3.186800
						CHANNELS 3 Xrotation Yrotation Zrotation
						End Site
						{
							OFFSET 0.000000 6.719513 0.000000
						}
					}
				}
				JOINT HairE
				{
					OFFSET 5.915200 17.612701 -11.592200
					CHANNELS 3 Xrotation Yrotation Zrotation
					JOINT HairE1
					{
						OFFSET 0.289200 -7.171898 -1.284500
						CHANNELS 3 Xrotation Yrotation Zrotation
						End Site
						{
							OFFSET 0.000000 7.291756 0.000000
						}
					}
				}
				JOINT HairF
				{
					OFFSET -0.864800 17.612701 -11.592200
					CHANNELS 3 Xrotation Yrotation Zrotation
					JOINT HairF1
					{
						OFFSET 0.000000 -14.087097 -2.127501
						CHANNELS 3 Xrotation Yrotation Zrotation
						End Site
						{
							OFFSET 0.000000 14.246841 0.000000
						}
					}
				}
				JOINT HairG
				{
					OFFSET -8.087700 17.612701 -11.592200
					CHANNELS 3 Xrotation Yrotation Zrotation
					JOINT HairG1
					{
						OFFSET -0.293600 -6.081398 -0.910100
						CHANNELS 3 Xrotation Yrotation Zrotation
						End Site
						{
							OFFSET 0.000000 6.156120 0.000000
						}
					}
				}
			}
		}
	}
	JOINT Pouch
	{
		OFFSET 0.000000 4.394501 10.847300
		CHANNELS 3 Xrotation Yrotation Zrotation
		End Site
		{
			OFFSET 0.000000 21.880577 0.000000
		}
	}
	JOINT Bag
	{
		OFFSET -13.229000 4.813004 -0.593300
		CHANNELS 3 Xrotation Yrotation Zrotation
		End Site
		{
			OFFSET 0.000000 21.880577 0.000000
		}
	}
	JOINT OccupyGuyFacialAnim_Joint
	{
		OFFSET 1.000000 -70.206398 -1.655000
		CHANNELS 3 Xrotation Yrotation Zrotation
		End Site
		{
			OFFSET 0.000000 21.880577 0.000000
		}
	}
}
MOTION
Frames: 5
Frame Time: 0.033333
5.036003 22.257210 33.692131 22.168171 -17.933637 24.526880 -0.000001 0.000000 -0.000001 -143.427470 5.344781 42.124649 139.931397 9.404886 4.007852 -20.131803 0.097696 4.274510 0.000000 -0.000002 0.000000 0.000004 0.000000 0.000000 -158.661770 10.782073 13.900055 134.701098 10.799254 2.042323 0.632677 3.463238 -2.808597 0.000000 -0.000001 -0.000000 -0.000000 0.000000 -0.000000 7.448276 -1.945459 4.040169 4.245257 -1.645777 1.635121 4.200693 -1.736610 1.705230 -0.651772 0.897331 0.841494 -4.338102 7.360701 -14.278331 0.000002 0.000000 -0.000000 0.000002 0.000000 -0.000000 0.000002 0.000000 -0.000001 0.000002 0.000000 -0.000001 -0.000000 -0.000001 0.000002 0.000002 0.000000 -0.000001 -0.000000 -0.000001 0.000002 0.000002 0.000000 -0.000000 0.000002 0.000000 -0.000000 1.712870 -37.384426 -6.065752 -7.146415 -4.753877 -12.852725 -0.000008 -30.458737 -0.000011 -2.309103 -23.756165 0.732632 0.699773 -6.020113 19.223958 19.074664 26.512412 -1.026347 0.000001 -0.000000 -0.000001 0.460236 4.491399 -23.662331 0.883080 3.094833 -31.844172 -0.000001 -0.000000 -0.000002 2.486441 8.732159 -25.419650 1.496292 3.911570 -41.853996 0.000001 0.000000 -0.000001 3.090051 8.505056 -34.940355 1.098181 3.416396 -35.630259 0.000002 0.000001 0.000003 3.603272 12.761728 -45.581291 0.673742 2.729606 -27.725811 -0.000001 -0.000000 -0.000001 -0.000001 0.000001 0.000002 -1.811593 17.327235 29.039215 -14.296392 -12.141366 20.313966 -0.000004 0.716468 0.000004 -33.201061 4.064529 -22.856933 -17.506065 1.621642 -1.038891 13.635966 -19.800529 -6.745495 0.000000 -0.000001 0.000000 0.390546 -0.461844 -16.891930 0.589430 -2.269649 29.112643 -0.000002 0.000001 0.000001 -0.361926 -2.752539 -18.539329 0.921582 -2.783086 36.636991 0.000005 -0.000000 0.000001 -0.170041 -3.503277 -8.093621 0.356680 -1.789157 22.547332 -0.000002 0.000001 0.000004 -4.630593 -5.680224 -9.619593 0.612402 -2.310408 29.687588 0.000001 0.000001 -0.000003 0.000001 -0.000001 0.000000 -0.000000 0.000001 -0.000000 0.000001 0.000000 0.000001 -0.000000 0.000001 0.000001 -0.000000 0.000001 0.000001 -0.000000 0.000001 -0.000000 0.000001 0.000000 0.000002 -0.000000 0.000001 0.000001 -0.000000 0.000001 0.000001 -0.000000 0.000001 -0.000000 0.000001 0.000000 0.000002 -0.000001 0.000000 -0.000001 -0.000001 0.000000 -0.000001 -0.000001 0.000000 -0.000001 
4.696655 21.357094 33.545452 19.117715 -17.869887 25.029211 -0.000002 -0.000000 -0.000002 -142.339448 4.881601 42.681579 140.743780 9.109393 4.002899 -18.393698 -0.227888 3.697760 0.000000 -0.000001 -0.000000 -0.000000 0.000000 0.000001 -159.308616 10.719464 13.903359 135.942321 10.825876 2.183542 2.911928 3.721374 -4.024645 -0.000000 -0.000000 0.000000 0.000002 0.000002 -0.000001 7.459534 -2.138628 3.972567 4.087558 -1.763604 1.715274 4.045661 -1.823550 1.788626 0.627009 0.991746 -0.099800 -3.113784 7.105832 -14.910796 -0.000001 0.000001 -0.000001 -0.000001 0.000001 -0.000001 -0.000001 0.000001 -0.000001 -0.000001 0.000001 -0.000002 -0.000001 -0.000000 -0.000002 -0.000001 0.000001 -0.000002 -0.000001 -0.000000 -0.000002 -0.000001 0.000001 -0.000001 -0.000001 0.000001 -0.000001 1.536225 -37.932845 -6.685007 -6.672683 -5.259299 -12.928883 0.000009 -28.849496 0.000007 -2.598754 -23.903586 0.011425 0.699772 -6.020115 19.223957 19.074668 26.512412 -1.026346 0.000001 -0.000000 -0.000000 0.460234 4.491407 -23.662347 0.883083 3.094852 -31.844203 0.000001 0.000000 0.000002 2.486442 8.732151 -25.419662 1.496301 3.911568 -41.853982 -0.000001 -0.000001 -0.000001 3.090056 8.505077 -34.940383 1.098164 3.416386 -35.630245 -0.000002 0.000001 -0.000002 3.603259 12.761710 -45.581288 0.673746 2.729601 -27.725821 -0.000001 -0.000001 -0.000001 0.000001 0.000000 -0.000001 -1.537513 16.528988 27.912254 -13.251896 -14.158361 21.264107 -0.000000 0.705327 0.000008 -33.357787 5.694775 -25.779234 -17.106166 0.568592 -1.346149 13.621849 -19.444642 -6.708966 -0.000002 -0.000004 0.000002 0.470483 -2.032041 -16.835366 0.589430 -2.269645 29.112636 -0.000001 -0.000000 0.000000 -0.461789 -3.247689 -17.133635 0.921611 -2.783130 36.637732 0.000003 0.000003 0.000003 -0.036960 -3.046474 -5.061067 0.356646 -1.789076 22.546494 -0.000001 0.000001 0.000001 -4.240147 -4.823683 -7.702131 0.612405 -2.310409 29.687598 0.000005 0.000001 -0.000003 -0.000000 0.000004 0.000001 -0.000002 0.000001 -0.000002 -0.000000 -0.000001 0.000003 -0.000002 0.000001 -0.000000 -0.000002 0.000001 -0.000000 -0.000002 0.000001 -0.000002 -0.000000 -0.000001 0.000003 -0.000002 0.000001 -0.000000 -0.000002 0.000001 -0.000000 -0.000002 0.000001 -0.000002 -0.000000 -0.000001 0.000003 -0.000002 -0.000000 -0.000002 -0.000002 -0.000000 -0.000002 -0.000002 -0.000000 -0.000002 
4.311874 20.556526 33.315018 15.755493 -17.705413 25.325209 0.000000 -0.000001 0.000000 -140.735706 4.421746 42.857306 141.241154 8.826152 3.914975 -16.581551 -0.711064 3.062005 -0.000000 0.000000 -0.000000 0.000001 0.000000 0.000000 -159.346879 10.486143 13.769992 136.957847 10.866895 2.279783 5.319528 3.494646 -5.544703 -0.000000 -0.000001 -0.000000 -0.000000 -0.000001 0.000000 7.406983 -2.333042 3.806959 3.944594 -1.862094 1.840689 3.910480 -1.880309 1.913170 2.201011 0.968165 -0.718592 -1.714696 6.855300 -15.405352 -0.000000 -0.000001 -0.000000 -0.000000 -0.000001 -0.000000 -0.000000 -0.000001 -0.000001 -0.000000 -0.000001 -0.000000 -0.000000 -0.000001 -0.000001 -0.000000 -0.000001 -0.000000 -0.000000 -0.000001 -0.000001 -0.000000 -0.000001 -0.000000 -0.000000 -0.000001 -0.000000 1.456572 -38.432050 -6.978660 -5.933793 -6.336937 -13.232673 0.000004 -27.034596 -0.000005 -2.502211 -23.883483 -0.968462 0.699774 -6.020115 19.223958 19.074664 26.512409 -1.026344 -0.000000 -0.000000 0.000000 0.460224 4.491418 -23.662338 0.883082 3.094846 -31.844189 0.000002 0.000001 0.000000 2.486438 8.732165 -25.419657 1.496290 3.911563 -41.853985 0.000002 -0.000001 0.000001 3.090048 8.505074 -34.940359 1.098191 3.416413 -35.630273 -0.000002 0.000001 -0.000001 3.603262 12.761725 -45.581285 0.673755 2.729583 -27.725816 0.000000 -0.000001 0.000003 0.000001 0.000000 -0.000000 -1.393418 16.172285 27.172181 -11.970699 -16.499620 22.626291 -0.000001 0.690612 -0.000041 -31.883596 8.348326 -31.806019 -18.973571 1.775867 -9.656145 13.608616 -19.113996 -6.673643 -0.000001 -0.000001 0.000001 0.732372 -4.442515 -20.992609 0.589431 -2.269646 29.112640 0.000001 -0.000001 -0.000007 -1.588943 -5.344152 -22.583722 0.921645 -2.783190 36.638487 0.000001 0.000002 -0.000001 -0.420431 -4.826414 -9.262432 0.356622 -1.789022 22.545865 0.000001 0.000000 0.000006 -3.924117 -3.961191 -5.889466 0.612406 -2.310406 29.687598 0.000002 0.000004 -0.000002 0.000001 -0.000001 -0.000000 -0.000001 -0.000001 0.000002 -0.000001 0.000000 0.000001 -0.000001 -0.000001 0.000001 -0.000001 -0.000001 0.000001 -0.000001 -0.000001 0.000002 -0.000001 0.000000 0.000002 -0.000001 -0.000001 0.000001 -0.000001 -0.000001 0.000001 -0.000001 -0.000001 0.000002 -0.000001 0.000000 0.000002 0.000000 -0.000001 0.000000 0.000000 -0.000001 0.000000 0.000000 -0.000001 0.000000 
3.850620 19.854622 32.946465 12.158795 -17.276706 25.380408 -0.000000 0.000000 -0.000000 -138.879657 3.993378 42.663103 141.312721 7.862634 3.717079 -14.452033 -0.807739 2.956999 -0.000000 -0.000001 -0.000000 -0.000001 -0.000001 -0.000000 -158.746587 10.022846 13.587078 137.722309 10.904207 2.262321 7.690572 2.501671 -7.114454 -0.000000 -0.000001 -0.000000 0.000002 0.000000 -0.000000 7.356589 -2.437224 3.636866 3.854932 -1.894947 1.920772 3.828327 -1.883030 1.990785 3.698236 0.871577 -1.162850 -0.153516 6.264807 -15.433258 -0.000002 0.000001 -0.000000 -0.000002 0.000001 -0.000000 -0.000002 0.000001 -0.000001 -0.000002 0.000001 -0.000000 -0.000001 -0.000001 -0.000000 -0.000002 0.000001 -0.000000 -0.000001 -0.000001 -0.000000 -0.000002 0.000001 -0.000000 -0.000002 0.000001 -0.000000 1.314157 -38.789170 -7.445790 -5.020067 -8.086813 -12.994534 -0.000004 -25.407506 0.000005 -1.565823 -24.124455 -1.762452 0.699772 -6.020115 19.223962 19.074664 26.512417 -1.026347 0.000000 -0.000000 -0.000000 0.460232 4.491409 -23.662342 0.883078 3.094836 -31.844193 0.000001 0.000001 -0.000003 2.486450 8.732153 -25.419657 1.496288 3.911566 -41.853975 0.000001 -0.000001 -0.000001 3.090049 8.505052 -34.940359 1.098178 3.416393 -35.630256 0.000001 0.000000 -0.000002 3.603269 12.761722 -45.581295 0.673767 2.729581 -27.725819 -0.000000 -0.000001 0.000003 -0.000001 -0.000000 0.000001 -1.218224 15.393737 26.687945 -10.822337 -18.638512 24.554836 -0.000007 0.642802 -0.000007 -31.778521 12.397271 -39.875423 -19.560933 2.121166 -13.012769 13.598154 -18.854245 -6.644955 -0.000000 -0.000001 -0.000000 0.811947 -4.272645 -21.300826 0.589429 -2.269648 29.112640 -0.000002 -0.000003 0.000005 -1.372115 -4.500733 -24.099088 0.921672 -2.783196 36.639068 0.000002 0.000002 -0.000000 -0.554352 -4.658083 -12.029988 0.356606 -1.788979 22.545379 -0.000001 -0.000002 0.000001 -3.266511 -4.077308 -10.962711 0.612403 -2.310405 29.687598 0.000001 -0.000001 0.000000 -0.000001 0.000001 0.000001 0.000001 0.000001 -0.000000 -0.000001 -0.000001 -0.000002 0.000001 0.000001 0.000003 0.000001 0.000001 0.000003 0.000001 0.000001 -0.000000 -0.000001 -0.000001 -0.000001 0.000001 0.000001 0.000003 0.000001 0.000001 0.000003 0.000001 0.000001 -0.000000 -0.000001 -0.000001 -0.000001 -0.000000 0.000000 -0.000000 -0.000000 0.000000 -0.000000 -0.000000 0.000000 -0.000000 
3.285313 19.313950 32.464619 8.512941 -16.710162 25.183903 0.000001 -0.000000 0.000002 -136.556191 3.383975 42.346138 140.938058 6.144651 3.400135 -12.120355 -0.688667 3.022273 -0.000000 0.000001 -0.000000 0.000001 0.000000 -0.000001 -157.161396 8.935119 13.004759 138.167637 10.925990 2.083553 9.880516 0.628099 -9.090113 -0.000000 0.000000 0.000000 0.000001 0.000000 0.000001 7.373639 -2.480791 3.569737 3.818369 -1.902650 1.925981 3.793666 -1.882283 1.996564 4.971233 0.817652 -1.623878 1.308906 5.525366 -14.887152 -0.000001 0.000000 -0.000001 -0.000001 0.000000 -0.000001 -0.000001 0.000000 -0.000002 -0.000001 0.000000 -0.000001 -0.000001 0.000000 0.000000 -0.000001 0.000000 -0.000001 -0.000001 0.000000 0.000000 -0.000001 0.000000 -0.000001 -0.000001 0.000000 -0.000001 1.094232 -38.904583 -8.127069 -4.622704 -9.853523 -12.538876 -0.000004 -24.394543 0.000002 -0.956731 -24.192889 -2.660112 0.699769 -6.020118 19.223969 19.074671 26.512416 -1.026346 0.000002 -0.000001 -0.000000 0.460236 4.491381 -23.662343 0.883079 3.094848 -31.844196 -0.000000 0.000001 -0.000000 2.486446 8.732160 -25.419664 1.496301 3.911567 -41.853982 0.000001 0.000003 -0.000001 3.090058 8.505045 -34.940383 1.098176 3.416412 -35.630269 0.000000 0.000001 -0.000002 3.603259 12.761711 -45.581278 0.673745 2.729592 -27.725813 -0.000002 -0.000000 0.000003 0.000003 0.000002 0.000006 -0.841485 13.576924 25.602868 -9.572047 -19.503933 27.699649 -0.000000 0.520042 -0.000015 -32.165024 16.583708 -49.148897 -19.362758 1.558617 -12.843425 13.592344 -18.711069 -6.628797 -0.000000 0.000000 0.000001 0.641213 -2.700108 -17.649166 0.589427 -2.269646 29.112633 -0.000001 0.000001 -0.000001 -0.281532 -2.255871 -21.303124 0.921682 -2.783239 36.639266 -0.000001 0.000000 -0.000001 -0.160493 -2.982847 -10.533579 0.356607 -1.788984 22.544948 -0.000002 -0.000003 -0.000003 -3.277016 -2.758346 -12.384068 0.612404 -2.310408 29.687598 0.000002 0.000004 -0.000002 0.000002 0.000001 0.000000 -0.000000 0.000000 0.000002 0.000001 -0.000002 0.000002 -0.000000 0.000000 0.000003 -0.000000 0.000000 0.000003 -0.000000 0.000000 0.000002 0.000001 -0.000002 0.000002 -0.000000 0.000000 0.000003 -0.000000 0.000000 0.000003 -0.000000 0.000000 0.000002 0.000001 -0.000002 0.000002 0.000001 -0.000000 0.000002 0.000001 -0.000000 0.000002 0.000001 -0.000000 0.000002 
